# xmcd
#
# Track frame offsets:
#	150
#	14513
#	26667
#	39836
#	52793
#	63320
#	75321
#	86943
#	97708
#	110672
#	120624
#	131881
#	140981
#	153972
#	164821
#	177683
#	191689
#	203001
#	215255
#	226435
#	241385
#	253075
#	264259
#	277598
#	289000
#	300201
#	311473
#	321182
#	331203
#
# Disc length: 4575 seconds
#
# Revision: 0
# Processed by: cddbd v1.5.2PL0 Copyright (c) Steve Scherf et al.
# Submitted via: EasyCDDAExtractor 15.3.0.1
#
DISCID=9211dd1d
DTITLE=Tuttle Wesley - Detour CD 2
DYEAR=1900
DGENRE=
TTITLE0=Tuttle Wesley - There's A Star Spangled Rainbow
TTITLE1=Tuttle Wesley - Your Picture Of Love (1948 Uniss.)
TTITLE2=Tuttle Wesley - Who Do You Spend Your Dreams With
TTITLE3=Tuttle Wesley - Before I'm Through
TTITLE4=Tuttle Wesley - Lonely Trail Of Memory (1948 Uniss.)
TTITLE5=Tuttle Wesley - Time And The Place
TTITLE6=Tuttle Wesley and Marilyn Wesley - Need You
TTITLE7=Tuttle Wesley and Marilyn Wesley - Bitin' My Fingernails And Thinkin' Of
TTITLE7=You
TTITLE8=Tuttle Wesley and Marilyn Wesley - Hold Me Hold Me
TTITLE9=Tuttle Wesley - When You Lose The One You Love
TTITLE10=Tuttle Wesley and Marilyn Wesley - This Cold War With You
TTITLE11=Tuttle Wesley - Yodelin' Boogie
TTITLE12=Tuttle Wesley - Picture In A Frame
TTITLE13=Tuttle Wesley - Texas Yodel
TTITLE14=Tuttle Wesley - Devil's Heart
TTITLE15=Tuttle Wesley and Marilyn Wesley and Tex Ritter and Jimmy Wakely - Hearsick
TTITLE15=Soldier On) Heartbreak Ridge
TTITLE16=Tuttle Wesley - Tennessee Rose
TTITLE17=Tuttle Wesley - I Stopped Living (1948 Uniss.)
TTITLE18=Tuttle Wesley - I've Got A Round Trip Ticket (From Here To Chattanoog
TTITLE18=a)
TTITLE19=Tuttle Wesley and Marilyn Wesley and Thurl Ravenscroft and Jimmy Wakely - F
TTITLE19=lying Enerprise (1948 Uniss.)
TTITLE20=Tuttle Wesley - Love's Call Of The Mountain
TTITLE21=Tuttle Wesley - They Locked God Outisde The Iron Curtain
TTITLE22=Tuttle Wesley - Gathering Home
TTITLE23=Tuttle Wesley - Fill The Cup To Overflowing
TTITLE24=Tuttle Wesley - I Dreamed Of A Hillbilly Heaven
TTITLE25=Tuttle Wesley - I Wonder Where You Are Tonight
TTITLE26=Tuttle Wesley and Marilyn Wesley - Never
TTITLE27=Tuttle Wesley - Higher And Higher
TTITLE28=Tuttle Wesley - Jim Johnny And Jonas
EXTD=
EXTT0=
EXTT1=
EXTT2=
EXTT3=
EXTT4=
EXTT5=
EXTT6=
EXTT7=
EXTT8=
EXTT9=
EXTT10=
EXTT11=
EXTT12=
EXTT13=
EXTT14=
EXTT15=
EXTT16=
EXTT17=
EXTT18=
EXTT19=
EXTT20=
EXTT21=
EXTT22=
EXTT23=
EXTT24=
EXTT25=
EXTT26=
EXTT27=
EXTT28=
PLAYORDER=
